{
	"asset":{
		"generator":"Khronos glTF Blender I/O v4.2.60",
		"version":"2.0"
	},
	"scene":0,
	"scenes":[
		{
			"name":"Scene",
			"nodes":[
				0
			]
		}
	],
	"nodes":[
		{
			"mesh":0,
			"name":"Test"
		}
	],
	"materials":[
		{
			"name":"BasicShapeMaterial",
			"pbrMetallicRoughness":{
				"baseColorFactor":[
					0.8999999761581421,
					0.8999999761581421,
					0.8999999761581421,
					1
				],
				"metallicFactor":0,
				"roughnessFactor":0.6406999826431274
			}
		}
	],
	"meshes":[
		{
			"name":"Test",
			"primitives":[
				{
					"attributes":{
						"POSITION":0,
						"NORMAL":1,
						"TEXCOORD_0":2,
						"TEXCOORD_1":3,
						"TEXCOORD_2":4
					},
					"indices":5,
					"material":0
				}
			]
		}
	],
	"accessors":[
		{
			"bufferView":0,
			"componentType":5126,
			"count":5602,
			"max":[
				3.5,
				4,
				3.5
			],
			"min":[
				-3.5,
				-0.5,
				-3.5
			],
			"type":"VEC3"
		},
		{
			"bufferView":1,
			"componentType":5126,
			"count":5602,
			"type":"VEC3"
		},
		{
			"bufferView":2,
			"componentType":5126,
			"count":5602,
			"type":"VEC2"
		},
		{
			"bufferView":3,
			"componentType":5126,
			"count":5602,
			"type":"VEC2"
		},
		{
			"bufferView":4,
			"componentType":5126,
			"count":5602,
			"type":"VEC2"
		},
		{
			"bufferView":5,
			"componentType":5123,
			"count":27024,
			"type":"SCALAR"
		}
	],
	"bufferViews":[
		{
			"buffer":0,
			"byteLength":67224,
			"byteOffset":0,
			"target":34962
		},
		{
			"buffer":0,
			"byteLength":67224,
			"byteOffset":67224,
			"target":34962
		},
		{
			"buffer":0,
			"byteLength":44816,
			"byteOffset":134448,
			"target":34962
		},
		{
			"buffer":0,
			"byteLength":44816,
			"byteOffset":179264,
			"target":34962
		},
		{
			"buffer":0,
			"byteLength":44816,
			"byteOffset":224080,
			"target":34962
		},
		{
			"buffer":0,
			"byteLength":54048,
			"byteOffset":268896,
			"target":34963
		}
	],
	"buffers":[
		{
			"byteLength":322944,
			"uri":"Test.bin"
		}
	]
}
